<svg width="44" height="42" viewBox="0 0 44 42" fill="none" xmlns="http://www.w3.org/2000/svg">
<path d="M25.8541 10.2995C25.8541 10.2995 13.5587 5.35106 12.9682 5.05121C12.3777 4.75137 21.855 1.15252 22.5956 1.00257C23.3362 0.852625 42.4195 7.30076 40.9597 8.05036C39.5 8.79996 22.5956 15.8476 21.855 15.9975C21.1144 16.1475 2.30398 9.39975 2.00775 8.79996C1.71152 8.20016 10.0059 5.95091 10.0059 5.95091" stroke="#605857" stroke-width="1.5"/>
<path d="M1.19468 11.6395C1.19468 11.6395 0.756646 32.5481 1.19468 33.1412C1.63272 33.7344 22.8045 41.0005 22.8045 41.0005M22.8045 41.0005C22.8045 41.0005 41.9321 31.8067 42.5162 31.2135C43.1002 30.6204 43.1002 10.305 42.8082 10.0084C42.5162 9.71181 23.3885 17.8676 22.8045 18.6091C22.2205 19.3505 22.8045 41.0005 22.8045 41.0005ZM4.69898 29.8789C7.32758 31.2135 8.7877 31.9549 12.7297 33.1412" stroke="#605857" stroke-width="1.5"/>
</svg>
