<svg width="56" height="38" viewBox="0 0 56 38" fill="none" xmlns="http://www.w3.org/2000/svg">
<path d="M55 9.53723L31.9283 1.58541C30.7907 1.14365 27.8327 0.525173 25.1024 1.58541C22.372 2.64566 9.12967 6.70989 2.8498 8.60948C1.62113 9.18378 -0.235526 10.5974 2.16721 11.6577C4.56994 12.7179 19.2777 17.6657 26.3312 20.0071C26.9683 20.3605 28.7885 20.8553 30.9728 20.0071C33.1571 19.1589 38.6179 17.1798 41.0752 16.2962C42.3494 15.6778 45.007 14.9974 45.4438 17.2239C45.9899 20.0071 46.2629 24.5131 43.2595 26.3685C40.2561 28.224 36.2971 30.0794 30.0172 30.2119C23.7373 30.3444 16.9114 29.0191 14.7271 27.4288C12.5428 25.8384 10.222 23.7179 8.31069 27.4288C6.78168 30.3974 4.39715 32.5533 3.39601 33.2601C2.66791 33.7902 1.64857 35.089 3.39601 36.0432C5.14345 36.9974 6.2174 37.0593 6.53595 36.9709C7.49158 36.4408 9.43015 34.5324 9.53936 31.1396C9.64858 27.7468 9.94892 21.5974 10.0854 18.9468C9.99442 17.6215 10.9592 14.5998 15.5462 13.1155C20.1332 11.6312 26.1036 9.13961 28.5155 8.07936" stroke="#605857" stroke-width="1.5"/>
</svg>
