<svg width="22" height="22" viewBox="0 0 22 22" fill="none" xmlns="http://www.w3.org/2000/svg">
<path d="M5.51398 1C4.20998 1.129 3.33198 1.419 2.67598 2.076C1.50098 3.253 1.50098 5.148 1.50098 8.939V12.959C1.50098 16.749 1.50098 18.645 2.67598 19.823C3.85098 21.001 5.74298 21 9.52598 21H11.533C15.316 21 17.208 21 18.383 19.823C19.45 18.753 19.549 17.106 19.558 13.977" stroke="#605857" stroke-width="1.5" stroke-linecap="round" stroke-linejoin="round"/>
<path d="M9.52571 6.00004L10.5287 9.50004C11.0887 10.61 11.7917 10.9 13.5387 11C14.9277 10.966 15.7337 10.802 16.4217 10.204C16.8907 9.79604 17.1027 9.18104 17.2057 8.56904L17.5497 6.50004M20.0577 4.50004V9.50004M7.60071 3.93304C9.18771 2.61604 10.6017 1.90904 13.5347 1.13104C13.8656 1.04368 14.2137 1.04541 14.5437 1.13604C17.1397 1.85004 18.5417 2.48404 20.4197 3.89404C20.4997 3.95404 20.5237 4.06604 20.4677 4.14904C19.8547 5.05104 18.4857 5.78204 15.1277 7.08404C14.4283 7.35317 13.6531 7.34889 12.9567 7.07204C9.38071 5.65204 7.73671 4.89204 7.53671 4.10304C7.53021 4.07156 7.53278 4.03887 7.5441 4.00878C7.55543 3.97869 7.57506 3.95243 7.60071 3.93304Z" stroke="#605857" stroke-width="1.5" stroke-linecap="round" stroke-linejoin="round"/>
</svg>
