<svg width="34" height="35" viewBox="0 0 34 35" fill="none" xmlns="http://www.w3.org/2000/svg">
<path d="M20.228 15.159C19.1845 14.113 15.0697 12.8058 13.5754 15.159C10.8352 19.474 14.0984 22.5683 14.7494 23.0038C15.9229 23.7888 23.3587 24.5728 23.75 17.9046C24.1414 11.2363 16.7052 10.8445 14.7494 11.2363C8.74228 12.4396 6.92224 18.2973 4.96615 21.435C2.80112 24.908 3.40083 26.142 4.18349 27.711C4.96615 29.28 8.09623 30.849 9.27023 30.0645C10.4442 29.28 13.5749 27.3188 14.3575 30.849C15.1402 34.3793 17.8795 33.987 19.4448 33.987C21.0102 33.987 24.9235 32.418 24.5321 30.0645C24.1408 27.711 24.9235 26.5343 27.2715 26.9265C29.6194 27.3188 31.5761 25.3575 32.3588 23.3963C33.1414 21.435 33.5327 19.0811 31.5761 17.9046C29.6194 16.7281 28.8368 15.1591 30.0108 13.9823C31.1848 12.8056 33.1414 12.4133 31.9674 9.66756C31.0282 7.47096 29.2281 5.87581 28.4454 5.35282C27.7932 5.09132 26.0192 4.88212 24.1408 6.13731C21.7928 7.70631 20.228 4.96062 20.228 4.17612C20.228 3.39162 19.0535 0.645875 15.9229 1.03812C12.7922 1.43037 10.0529 2.6073 10.4442 4.9608C10.8355 7.3143 8.48756 9.27555 6.92224 8.49105C5.35692 7.70655 3.79159 7.70678 2.22627 10.8445C0.660944 13.9823 0.269613 16.336 3.00893 17.5128" stroke="#605857" stroke-width="1.5"/>
</svg>
