<svg width="34" height="35" viewBox="0 0 34 35" fill="none" xmlns="http://www.w3.org/2000/svg">
<path d="M1 28.8121V32.8688C1 33.1688 1.11557 33.4565 1.32129 33.6687C1.52701 33.8808 1.80603 34 2.09696 34H6.03065C6.32102 33.9999 6.59952 33.8811 6.8051 33.6697L25.4534 14.4386L19.9686 8.78244L1.32031 28.0135C1.11525 28.2255 1.00006 28.5127 1 28.8121ZM24.2336 4.38418L29.7184 10.0404L32.3576 7.31861C32.7689 6.89434 33 6.31897 33 5.71904C33 5.11911 32.7689 4.54375 32.3576 4.11947L29.9751 1.66242C29.5636 1.23827 29.0057 1 28.424 1C27.8422 1 27.2843 1.23827 26.8729 1.66242L24.2336 4.38418Z" stroke="#AB9A96" stroke-width="2"/>
</svg>
