<svg width="36" height="37" viewBox="0 0 36 37" fill="none" xmlns="http://www.w3.org/2000/svg">
<path d="M34.0139 20.8054C29.4237 25.6956 20.1353 35.602 19.7032 36.1061C19.2712 36.6101 9.68281 32.7759 4.9426 30.7958C3.62254 30.3458 0.982422 28.7977 0.982422 26.2056C0.982422 23.6135 3.62254 24.2255 4.9426 24.8556L19.7032 30.4358L26.3635 23.3255L33.8339 16.1252C33.5339 15.5552 33.2038 13.8211 33.5639 11.085" stroke="#605857" stroke-width="1.5"/>
<path d="M33.6523 11.1748L20.2413 24.5853C15.1411 22.8153 5.22899 19.0256 4.76101 18.8251C3.50071 18.2851 0.88718 14.7715 3.32061 12.7948C4.761 11.6248 12.861 4.96448 17.0917 1.72436C17.8118 1.33434 19.8818 0.788315 22.402 1.72436C24.9221 2.6604 31.4923 4.75448 34.4625 5.68451C30.0523 9.94471 21.16 18.5371 20.8719 18.8251C20.5837 19.1131 11.1208 15.6449 6.38069 13.6949" stroke="#605857" stroke-width="1.5"/>
</svg>
