<svg width="14" height="14" viewBox="0 0 14 14" fill="none" xmlns="http://www.w3.org/2000/svg">
<path d="M4.30943 0.571306H0.973096C0.715015 0.571306 0.467504 0.676664 0.285013 0.864202C0.102522 1.05174 0 1.3061 0 1.57132V13C0 13.2652 0.102522 13.5196 0.285013 13.7071C0.467504 13.8946 0.715015 14 0.973096 14H4.30943C4.43722 14 4.56375 13.9741 4.68182 13.9239C4.79988 13.8736 4.90715 13.8 4.99751 13.7071C5.08787 13.6142 5.15955 13.504 5.20845 13.3827C5.25735 13.2614 5.28252 13.1313 5.28252 13V1.57132C5.28252 1.43999 5.25735 1.30996 5.20845 1.18863C5.15955 1.0673 5.08787 0.957061 4.99751 0.864202C4.90715 0.771342 4.79988 0.697682 4.68182 0.647427C4.56375 0.597172 4.43722 0.571306 4.30943 0.571306ZM0.834083 3.71419H4.44844V10.8571H0.834083V3.71419ZM0.973096 1.42846H4.30943C4.3463 1.42846 4.38165 1.44351 4.40772 1.4703C4.43379 1.49709 4.44844 1.53343 4.44844 1.57132V2.85704H0.834083V1.57132C0.834083 1.53343 0.848729 1.49709 0.874799 1.4703C0.900869 1.44351 0.936228 1.42846 0.973096 1.42846ZM4.30943 13.1428H0.973096C0.936228 13.1428 0.900869 13.1278 0.874799 13.101C0.848729 13.0742 0.834083 13.0379 0.834083 13V11.7143H4.44844V13C4.44844 13.0379 4.43379 13.0742 4.40772 13.101C4.38165 13.1278 4.3463 13.1428 4.30943 13.1428ZM13.0464 12.0714L10.7395 0.797022C10.7135 0.667954 10.6629 0.545449 10.5906 0.436552C10.5183 0.327656 10.4258 0.234516 10.3184 0.162491C10.211 0.090466 10.0907 0.0409763 9.96465 0.0168681C9.83855 -0.00723996 9.70905 -0.00549081 9.58361 0.0220152L6.32999 0.740593C6.07819 0.797473 5.85837 0.954096 5.71822 1.17648C5.57808 1.39886 5.52892 1.66906 5.5814 1.92846L7.88834 13.2007C7.91458 13.3302 7.96556 13.4531 8.03834 13.5622C8.11112 13.6714 8.20425 13.7646 8.31233 13.8364C8.46875 13.9416 8.65158 13.9977 8.8385 13.9979C8.90861 13.9982 8.97855 13.9905 9.04702 13.975L12.3006 13.2571C12.5515 13.1996 12.7703 13.043 12.9098 12.8212C13.0493 12.5994 13.0984 12.3301 13.0464 12.0714ZM7.29058 6.11993L10.8167 5.34135L11.7981 10.1385L8.27132 10.915L7.29058 6.11993ZM6.82975 3.86562L10.3565 3.0849L10.645 4.49991L7.1189 5.27849L6.82975 3.86562ZM6.50585 1.57989L9.75877 0.862023C9.76847 0.86097 9.77826 0.86097 9.78796 0.862023C9.81395 0.862097 9.83933 0.870048 9.86094 0.88488C9.87691 0.895327 9.89063 0.909016 9.90127 0.925106C9.91191 0.941196 9.91923 0.959349 9.9228 0.978453L10.1835 2.25132L6.65806 3.02419L6.39811 1.75417C6.38999 1.71621 6.39674 1.67649 6.4169 1.6436C6.43707 1.61072 6.46902 1.58732 6.50585 1.57846V1.57989ZM12.1227 12.4228L8.86908 13.1428C8.85166 13.1468 8.83364 13.1472 8.81609 13.1438C8.79854 13.1405 8.78182 13.1336 8.7669 13.1236C8.75094 13.1131 8.73721 13.0994 8.72658 13.0833C8.71594 13.0672 8.70861 13.0491 8.70504 13.03L8.44439 11.7571L11.9698 10.9785L12.2332 12.245C12.2373 12.264 12.2377 12.2837 12.2343 12.3029C12.231 12.3221 12.224 12.3404 12.2137 12.3568C12.2034 12.3732 12.1901 12.3874 12.1745 12.3985C12.1589 12.4095 12.1413 12.4173 12.1227 12.4214V12.4228Z" fill="#605857"/>
</svg>
