<svg width="42" height="53" viewBox="0 0 42 53" fill="none" xmlns="http://www.w3.org/2000/svg">
<path d="M1 46.5V2.5C1.16667 2 1.8 1 3 1C4.2 1 28.5 1 40.5 1V51.5L12 52C10.3333 51.5 7 49.7 7 46.5V35.5C7.5 35 8.7 33.9 9.5 33.5C11.1248 32.6876 13 33 13 34.5C13 35.5 13 36 12 36.5C11 37 8.5 37 7.5 36C6.75374 35.2537 6.96466 25.4577 6.99636 24.1451M7 24C7.83333 23.3333 9.7 22 10.5 22C11.5 22 13 22 13.5 23.5C14 25 12.5 26 11 26C9.5 26 7.49273 24.2901 6.99636 24.1451M7 24C7 24 6.99865 24.0505 6.99636 24.1451M7 24C7 20.6028 7 13.972 7 12.6978M7 12.6978C7 12.5968 7 12.5294 7 12.5C7 12 8.5 11 10 10.5C11.5 10 13.0887 10.2661 13.5 11.5C14 13 13 14 11 14C9 14 7.5 13.3956 7 12.6978Z" stroke="#605857" stroke-width="1.5"/>
</svg>
