<svg width="14" height="14" viewBox="0 0 14 14" fill="none" xmlns="http://www.w3.org/2000/svg">
<path d="M3.60237 10.9716C3.79312 10.9716 3.95296 10.9069 4.08187 10.7774C4.21021 10.6485 4.27437 10.4883 4.27437 10.297C4.27437 10.1057 4.20962 9.94583 4.08012 9.8175C3.95062 9.68917 3.7905 9.625 3.59975 9.625C3.409 9.625 3.24917 9.68975 3.12025 9.81925C2.99133 9.94875 2.92717 10.1089 2.92775 10.2996C2.92833 10.4904 2.99308 10.6499 3.122 10.7782C3.25092 10.9066 3.41104 10.9716 3.60237 10.9716ZM3.60237 7.67287C3.79312 7.67287 3.95296 7.60842 4.08187 7.4795C4.21021 7.35 4.27437 7.18958 4.27437 6.99825C4.27437 6.80692 4.20962 6.64737 4.08012 6.51962C3.95062 6.39187 3.7905 6.32771 3.59975 6.32712C3.409 6.32654 3.24917 6.391 3.12025 6.5205C2.99133 6.65 2.92717 6.81042 2.92775 7.00175C2.92833 7.19308 2.99308 7.35262 3.122 7.48037C3.25092 7.60812 3.41104 7.67229 3.60237 7.67287ZM3.60237 4.375C3.79312 4.375 3.95296 4.31054 4.08187 4.18162C4.21021 4.05212 4.27437 3.89171 4.27437 3.70037C4.27437 3.50904 4.20962 3.3495 4.08012 3.22175C3.95062 3.094 3.7905 3.02983 3.59975 3.02925C3.409 3.02867 3.24917 3.09312 3.12025 3.22262C2.99192 3.35212 2.92775 3.51225 2.92775 3.703C2.92775 3.89375 2.9925 4.05358 3.122 4.1825C3.2515 4.31142 3.41162 4.37558 3.60237 4.375ZM6.293 10.7362H11.0049V9.86125H6.293V10.7362ZM6.293 7.4375H11.0049V6.5625H6.293V7.4375ZM6.293 4.13875H11.0049V3.26375H6.293V4.13875ZM1.414 14C1.01092 14 0.674625 13.8652 0.405125 13.5957C0.135625 13.3262 0.000583333 12.9897 0 12.586V1.414C0 1.01092 0.135041 0.674625 0.405125 0.405125C0.675208 0.135625 1.0115 0.000583333 1.414 0H12.5869C12.9894 0 13.3257 0.135041 13.5957 0.405125C13.8658 0.675208 14.0006 1.0115 14 1.414V12.5869C14 12.9894 13.8652 13.3257 13.5957 13.5957C13.3262 13.8658 12.9897 14.0006 12.586 14H1.414ZM1.414 13.125H12.5869C12.721 13.125 12.8444 13.069 12.957 12.957C13.0696 12.845 13.1256 12.7213 13.125 12.586V1.414C13.125 1.27925 13.069 1.15558 12.957 1.043C12.845 0.930416 12.7213 0.874417 12.586 0.875H1.414C1.27925 0.875 1.15558 0.931 1.043 1.043C0.930416 1.155 0.874417 1.27867 0.875 1.414V12.5869C0.875 12.721 0.931 12.8444 1.043 12.957C1.155 13.0696 1.27837 13.1256 1.41312 13.125" fill="#605857"/>
</svg>
