<svg width="30" height="36" viewBox="0 0 30 36" fill="none" xmlns="http://www.w3.org/2000/svg">
<path d="M25.755 35C22.1574 34.4203 14.8672 32.2085 12.8206 30.3199C10.1653 27.8696 7.85248 24.4938 9.47997 21.7112C11.1075 18.9286 15.0478 20.7547 15.7331 22.146C16.4183 23.5373 16.9323 26.146 15.7331 26.7547C14.5339 27.3634 13.6773 25.2764 14.7052 22.8416C15.5275 20.8938 16.9892 20.175 17.6173 20.059C18.9307 20.001 21.3004 20.8416 20.2727 24.6677C19.245 28.4938 12.6493 32.2909 9.47997 33.7112C8.02384 34.146 4.71753 34.7547 3.14144 33.7112C1.56534 32.6677 1.0571 31.4793 1 31.0155V21.7112C1.02855 21.1895 1.76655 20.0892 2.54183 19.6957C3.22709 19.3478 8.4522 16.6522 11.6215 15.6242C13.1348 15.2474 16.641 14.8261 19.5877 15.8696C23.2709 17.1739 28.753 18.8416 28.9243 23.6242C29.0614 27.4503 28.9814 31.4793 28.9243 33.0155C28.8672 33.3924 28.5646 34.2503 27.8108 34.6677M13.7627 1.18942C15.5044 0.754637 19.2448 0.78942 20.2727 4.40681C21.3006 8.0242 18.9307 10.6677 17.6173 11.5373C16.1897 12.4938 12.7691 13.5373 10.5078 10.059C8.24639 6.58076 10.1653 4.14597 10.5078 3.27641C10.5078 3.27641 11.2415 2.30032 11.8785 1.88511C12.5374 1.45562 13.7627 1.18942 13.7627 1.18942Z" stroke="#605857" stroke-width="1.5"/>
</svg>
