<svg width="48" height="43" viewBox="0 0 48 43" fill="none" xmlns="http://www.w3.org/2000/svg">
<path d="M13.7348 1.88489C10.8539 2.76381 4.7112 5.60564 3.18774 9.94164C1.28342 15.3616 2.45531 19.4633 3.18774 20.9281C3.92017 22.393 4.7993 24.0043 3.18774 26.4946C1.89849 28.4868 1.18555 30.5474 0.990234 31.3287C2.40627 31.231 5.53131 30.8306 6.70321 30.0103C7.8751 29.19 9.14465 28.0083 9.63294 27.52C9.77942 27.1294 9.86731 26.3481 9.04699 26.3481C8.02158 26.3481 7.72861 26.9341 7.58213 27.3735C7.43564 27.813 7.43564 29.2779 8.9005 30.0103C10.3654 30.7427 17.2502 32.2076 22.2308 30.3033C27.2113 28.3989 31.02 25.4692 32.4848 21.6606C33.9497 17.8519 33.5102 11.6995 32.0454 9.20921C30.5805 6.71894 26.9183 1.00597 19.301 1.29894" stroke="#605857" stroke-width="1.5"/>
<path d="M33.3638 13.604L45.5222 13.7505C45.9128 13.7993 46.6941 14.0728 46.6941 14.7759C46.6941 15.479 45.9128 27.6667 45.5222 33.6726C45.4245 34.2586 44.9069 35.4598 43.6179 35.577C42.3288 35.6942 38.8815 35.8211 37.3189 35.8699V40.997L29.9946 34.991C29.7016 34.3074 29.2915 32.7351 29.9946 31.9148C30.8735 30.8894 33.0706 30.4499 33.6565 32.0613C34.1253 33.3504 34.0471 33.6726 33.9495 33.6726L15.9316 33.9656V31.1824" stroke="#605857" stroke-width="1.5"/>
<circle cx="11.0977" cy="15.9478" r="0.75" fill="#605857"/>
<circle cx="11.0977" cy="15.9478" r="0.75" fill="#605857"/>
<circle cx="11.0977" cy="15.9478" r="0.75" fill="#605857"/>
<circle cx="11.0977" cy="15.9478" r="0.75" fill="#605857"/>
<circle cx="11.0977" cy="15.9478" r="0.75" fill="#605857"/>
<circle cx="11.0977" cy="15.9478" r="0.75" stroke="#605857" stroke-width="0.550811"/>
<circle cx="17.836" cy="15.9478" r="0.75" fill="#605857"/>
<circle cx="17.836" cy="15.9478" r="0.75" fill="#605857"/>
<circle cx="17.836" cy="15.9478" r="0.75" fill="#605857"/>
<circle cx="17.836" cy="15.9478" r="0.75" fill="#605857"/>
<circle cx="17.836" cy="15.9478" r="0.75" fill="#605857"/>
<circle cx="17.836" cy="15.9478" r="0.75" stroke="#605857" stroke-width="0.550811"/>
<circle cx="24.8672" cy="15.9478" r="0.75" fill="#605857"/>
<circle cx="24.8672" cy="15.9478" r="0.75" fill="#605857"/>
<circle cx="24.8672" cy="15.9478" r="0.75" fill="#605857"/>
<circle cx="24.8672" cy="15.9478" r="0.75" fill="#605857"/>
<circle cx="24.8672" cy="15.9478" r="0.75" fill="#605857"/>
<circle cx="24.8672" cy="15.9478" r="0.75" stroke="#605857" stroke-width="0.550811"/>
</svg>
