<svg width="16" height="13" viewBox="0 0 16 13" fill="none" xmlns="http://www.w3.org/2000/svg">
<path d="M7.5 5.59375L1 1.41406V9H7V10H0V0H15V4.69531C14.9323 4.64844 14.8568 4.59896 14.7734 4.54688C14.6901 4.49479 14.6042 4.44271 14.5156 4.39062C14.4271 4.33854 14.3385 4.29167 14.25 4.25C14.1615 4.20833 14.0781 4.17448 14 4.14844V1.41406L7.5 5.59375ZM12.7969 1H2.20312L7.5 4.40625L12.7969 1ZM16 9C16 9.55208 15.8958 10.0703 15.6875 10.5547C15.4792 11.0391 15.1953 11.4635 14.8359 11.8281C14.4766 12.1927 14.0521 12.4792 13.5625 12.6875C13.0729 12.8958 12.5521 13 12 13C11.4479 13 10.9297 12.8958 10.4453 12.6875C9.96094 12.4792 9.53646 12.1953 9.17188 11.8359C8.80729 11.4766 8.52083 11.0521 8.3125 10.5625C8.10417 10.0729 8 9.55208 8 9C8 8.44792 8.10417 7.92969 8.3125 7.44531C8.52083 6.96094 8.80469 6.53646 9.16406 6.17188C9.52344 5.80729 9.94792 5.52083 10.4375 5.3125C10.9271 5.10417 11.4479 5 12 5C12.5521 5 13.0703 5.10417 13.5547 5.3125C14.0391 5.52083 14.4635 5.80469 14.8281 6.16406C15.1927 6.52344 15.4792 6.94792 15.6875 7.4375C15.8958 7.92708 16 8.44792 16 9ZM12 12C12.4115 12 12.7995 11.9219 13.1641 11.7656C13.5286 11.6094 13.8464 11.3958 14.1172 11.125C14.388 10.8542 14.6042 10.5365 14.7656 10.1719C14.9271 9.80729 15.0052 9.41667 15 9C15 8.58854 14.9219 8.20052 14.7656 7.83594C14.6094 7.47135 14.3958 7.15365 14.125 6.88281C13.8542 6.61198 13.5339 6.39583 13.1641 6.23438C12.7943 6.07292 12.4062 5.99479 12 6C11.5833 6 11.1953 6.07812 10.8359 6.23438C10.4766 6.39062 10.1589 6.60417 9.88281 6.875C9.60677 7.14583 9.39062 7.46615 9.23438 7.83594C9.07812 8.20573 9 8.59375 9 9C9 9.41667 9.07812 9.80469 9.23438 10.1641C9.39062 10.5234 9.60417 10.8411 9.875 11.1172C10.1458 11.3932 10.4635 11.6094 10.8281 11.7656C11.1927 11.9219 11.5833 12 12 12ZM12 7V9H13.5V10H11V7H12Z" fill="#605857"/>
</svg>
