<svg width="31" height="37" viewBox="0 0 31 37" fill="none" xmlns="http://www.w3.org/2000/svg">
<path d="M4.91892 12.9231H30V6.76923H23.3378L22.5541 5.23077C22.9459 4.84615 23.7297 3.84615 23.7297 2.92308C23.7297 1.76923 22.9459 1 22.1622 1C21.3784 1 20.5946 2.53846 20.5946 2.92308C20.5946 3.30769 20.9865 4.46154 21.3784 4.84615C21.6919 5.15385 20.7252 6.25641 20.2027 6.76923H10.7973L9.22973 5.23077C9.62162 4.71795 10.4054 3.53846 10.4054 2.92308C10.4054 2.15385 9.62162 1 8.83784 1C8.05405 1 7.27027 2.15385 7.27027 2.92308C7.27027 3.53846 8.05405 4.71795 8.44595 5.23077L7.66216 6.76923H1V36H30V16H17.4595V21.7692H21.3784C23.0766 22.0256 26.3946 23.0769 26.0811 25.2308C25.6892 27.9231 25.2973 29.8462 22.5541 30.6154C20.3595 31.2308 17.4595 29.3333 16.2838 28.3077C15.7613 28.8205 14.4811 29.8462 13.5405 29.8462C12.3649 29.8462 10.0135 29.4615 8.05405 28.3077C6.09459 27.1538 5.31081 28.3077 4.91892 29.0769C4.52703 29.8462 7.27027 31.7692 10.4054 27.5385C12.9135 24.1538 13.5405 20.4872 13.5405 19.0769C13.4099 18.0513 12.4432 16 9.62162 16C6.8 16 5.83333 18.5641 5.7027 19.8462" stroke="#605857" stroke-width="1.5"/>
</svg>
