<svg width="18" height="16" viewBox="0 0 18 16" fill="none" xmlns="http://www.w3.org/2000/svg">
<path d="M15.3892 4.11108V8.77775C15.3892 11.7108 15.3892 13.1776 14.4777 14.0884C13.5669 15 12.1 15 9.16699 15H8.38921C5.45621 15 3.98933 15 3.07855 14.0884C2.16699 13.1776 2.16699 11.7108 2.16699 8.77775V4.11108" stroke="#605857" stroke-linecap="round"/>
<path d="M1 2.55556C1 1.82211 1 1.45578 1.22789 1.22789C1.45578 1 1.82211 1 2.55556 1H15C15.7334 1 16.0998 1 16.3277 1.22789C16.5556 1.45578 16.5556 1.82211 16.5556 2.55556C16.5556 3.289 16.5556 3.65533 16.3277 3.88322C16.0998 4.11111 15.7334 4.11111 15 4.11111H2.55556C1.82211 4.11111 1.45578 4.11111 1.22789 3.88322C1 3.65533 1 3.289 1 2.55556Z" stroke="#605857"/>
<path d="M6.83301 9.08883L7.94445 10.3333L10.7219 7.22217" stroke="#605857" stroke-linecap="round" stroke-linejoin="round"/>
</svg>
