<svg width="20" height="29" viewBox="0 0 20 29" fill="none" xmlns="http://www.w3.org/2000/svg">
<path d="M0.72 29V28.676H2.088C3.996 28.676 4.212 28.496 4.212 26.768V5.348C4.212 3.62 3.996 3.44 2.088 3.44H0.72V3.116H17.172C17.82 3.116 17.964 3.188 18.252 3.44H18.288L18.144 0.991998L18.504 0.955998L19.26 11.504H18.54L18.36 8.984C18.144 5.096 15.012 3.764 11.196 3.764H6.408V3.8C6.876 4.232 7.272 4.88 7.272 5.672V16.4H8.856C11.088 16.4 13.788 16.04 13.788 12.584V10.424H14.148V22.34H13.788V20.864C13.788 18.38 12.06 17.048 8.856 17.048H7.272V26.768C7.272 28.496 7.524 28.676 9.432 28.676H11.988V29H0.72Z" fill="#605857"/>
</svg>
